<svg id="visual" viewBox="0 0 960 540" width="960" height="540" xmlns="http://www.w3.org/2000/svg" xmlns:xlink="http://www.w3.org/1999/xlink" version="1.1"><rect width="960" height="540" fill="#000"></rect><g><g transform="translate(142 107)"><path d="M53.4 -16.5C60.8 5.4 52.6 33.2 33.2 47.8C13.8 62.3 -16.7 63.7 -37.6 49.1C-58.5 34.6 -69.8 4.1 -61.9 -18.4C-54 -40.9 -27 -55.5 -2 -54.8C23 -54.2 46 -38.3 53.4 -16.5Z" stroke="#262626" fill="none" stroke-width="20"></path></g><g transform="translate(538 16)"><path d="M35.7 -12.2C40.5 3 34.5 21.2 21.6 30.9C8.6 40.6 -11.4 41.8 -25 32.4C-38.6 23 -45.9 2.9 -40.6 -13C-35.4 -28.9 -17.7 -40.6 -1.1 -40.2C15.5 -39.8 31 -27.5 35.7 -12.2Z" stroke="#262626" fill="none" stroke-width="20"></path></g><g transform="translate(575 286)"><path d="M42.9 -16.1C48.3 2.4 40.1 23.1 24.9 34.1C9.7 45.1 -12.4 46.3 -27.3 35.9C-42.1 25.5 -49.7 3.5 -43.9 -15.7C-38.2 -34.8 -19.1 -50.9 -0.1 -50.9C18.8 -50.8 37.6 -34.6 42.9 -16.1Z" stroke="#262626" fill="none" stroke-width="20"></path></g><g transform="translate(944 397)"><path d="M59.5 -17.8C67.3 4.7 57.1 34.6 37.8 47.6C18.6 60.5 -9.7 56.4 -27.7 42.4C-45.6 28.3 -53.2 4.3 -46.9 -16.2C-40.5 -36.7 -20.3 -53.6 2.8 -54.5C25.8 -55.4 51.6 -40.3 59.5 -17.8Z" stroke="#262626" fill="none" stroke-width="20"></path></g><g transform="translate(30 528)"><path d="M51.8 -14.3C60 8.4 54.6 38.1 36.5 51.6C18.3 65.2 -12.6 62.6 -32.4 47.5C-52.2 32.4 -60.8 4.9 -53.5 -16.5C-46.3 -37.9 -23.1 -53.2 -0.7 -53C21.8 -52.8 43.6 -37 51.8 -14.3Z" stroke="#262626" fill="none" stroke-width="20"></path></g><g transform="translate(845 98)"><path d="M35.1 -11.1C40.1 4 35.1 22.7 22.7 31.9C10.3 41.1 -9.5 40.7 -23 31C-36.5 21.4 -43.8 2.4 -38.9 -12.6C-34 -27.6 -17 -38.6 -1 -38.2C15.1 -37.9 30.1 -26.3 35.1 -11.1Z" stroke="#262626" fill="none" stroke-width="20"></path></g><g transform="translate(276 415)"><path d="M56.4 -19.8C63.2 2.8 52.1 29.7 32.2 44.1C12.2 58.6 -16.7 60.7 -35.8 47.3C-54.9 33.9 -64.1 5.1 -56.5 -18.5C-48.8 -42 -24.4 -60.3 0.2 -60.3C24.8 -60.4 49.5 -42.3 56.4 -19.8Z" stroke="#262626" fill="none" stroke-width="20"></path></g><g transform="translate(360 154)"><path d="M41.5 -14.7C46.8 2.8 39.3 23.3 24.7 33.8C10.1 44.3 -11.5 45 -25.9 34.7C-40.3 24.4 -47.5 3.3 -42 -14.5C-36.5 -32.3 -18.2 -46.9 -0.1 -46.8C18.1 -46.8 36.2 -32.2 41.5 -14.7Z" stroke="#262626" fill="none" stroke-width="20"></path></g><g transform="translate(124 310)"><path d="M42.2 -14.5C47.6 2.9 39.9 23.7 26.1 33.1C12.2 42.5 -7.8 40.4 -22.3 30.1C-36.8 19.7 -45.7 1 -41 -15.4C-36.4 -31.8 -18.2 -45.8 0.1 -45.8C18.4 -45.9 36.8 -31.9 42.2 -14.5Z" stroke="#262626" fill="none" stroke-width="20"></path></g><g transform="translate(629 483)"><path d="M54.1 -14.9C62.8 8.9 57.2 40.1 37.7 54.9C18.2 69.8 -15.3 68.5 -37.2 52.3C-59.1 36.1 -69.4 5.1 -61.3 -18C-53.2 -41.1 -26.6 -56.4 -1.9 -55.7C22.8 -55.1 45.5 -38.7 54.1 -14.9Z" stroke="#262626" fill="none" stroke-width="20"></path></g><g transform="translate(775 286)"><path d="M33 -11.1C37.9 4.5 33.8 22.7 22.2 31.2C10.7 39.8 -8.3 38.7 -21 29.4C-33.6 20 -40 2.5 -35.4 -12.6C-30.9 -27.6 -15.4 -40.2 -0.7 -39.9C14 -39.7 28 -26.7 33 -11.1Z" stroke="#262626" fill="none" stroke-width="20"></path></g><g transform="translate(451 537)"><path d="M49.1 -14.4C56.2 5.9 49.3 32.2 32.2 44.7C15.1 57.3 -12.4 56 -30.9 42.6C-49.4 29.1 -59.1 3.4 -52.4 -16.2C-45.8 -35.8 -22.9 -49.4 -0.9 -49.1C21 -48.8 42 -34.6 49.1 -14.4Z" stroke="#262626" fill="none" stroke-width="20"></path></g></g></svg>