<svg id="visual" viewBox="0 0 900 450" width="900" height="450" xmlns="http://www.w3.org/2000/svg" xmlns:xlink="http://www.w3.org/1999/xlink" version="1.1"><rect x="0" y="0" width="900" height="450" fill="#000"></rect><path d="M0 74L10 69.2C20 64.3 40 54.7 60 46.8C80 39 100 33 120 28.5C140 24 160 21 180 20.8C200 20.7 220 23.3 240 32.7C260 42 280 58 300 59.2C320 60.3 340 46.7 360 40.3C380 34 400 35 420 40.5C440 46 460 56 480 57C500 58 520 50 540 44.5C560 39 580 36 600 37.3C620 38.7 640 44.3 660 41.2C680 38 700 26 720 24.5C740 23 760 32 780 34.8C800 37.7 820 34.3 840 38.2C860 42 880 53 890 58.5L900 64L900 451L890 451C880 451 860 451 840 451C820 451 800 451 780 451C760 451 740 451 720 451C700 451 680 451 660 451C640 451 620 451 600 451C580 451 560 451 540 451C520 451 500 451 480 451C460 451 440 451 420 451C400 451 380 451 360 451C340 451 320 451 300 451C280 451 260 451 240 451C220 451 200 451 180 451C160 451 140 451 120 451C100 451 80 451 60 451C40 451 20 451 10 451L0 451Z" fill="#ffffff"></path><path d="M0 68L10 66.8C20 65.7 40 63.3 60 63.2C80 63 100 65 120 69.5C140 74 160 81 180 87.7C200 94.3 220 100.7 240 98.7C260 96.7 280 86.3 300 81.3C320 76.3 340 76.7 360 82.8C380 89 400 101 420 105.8C440 110.7 460 108.3 480 105.3C500 102.3 520 98.7 540 96.8C560 95 580 95 600 91.3C620 87.7 640 80.3 660 84.2C680 88 700 103 720 107.2C740 111.3 760 104.7 780 104.5C800 104.3 820 110.7 840 113.7C860 116.7 880 116.3 890 116.2L900 116L900 451L890 451C880 451 860 451 840 451C820 451 800 451 780 451C760 451 740 451 720 451C700 451 680 451 660 451C640 451 620 451 600 451C580 451 560 451 540 451C520 451 500 451 480 451C460 451 440 451 420 451C400 451 380 451 360 451C340 451 320 451 300 451C280 451 260 451 240 451C220 451 200 451 180 451C160 451 140 451 120 451C100 451 80 451 60 451C40 451 20 451 10 451L0 451Z" fill="#dbdbdb"></path><path d="M0 149L10 150.7C20 152.3 40 155.7 60 158.2C80 160.7 100 162.3 120 158.3C140 154.3 160 144.7 180 137.5C200 130.3 220 125.7 240 127.7C260 129.7 280 138.3 300 143.5C320 148.7 340 150.3 360 148.3C380 146.3 400 140.7 420 141.5C440 142.3 460 149.7 480 151.5C500 153.3 520 149.7 540 147.8C560 146 580 146 600 140.7C620 135.3 640 124.7 660 118.7C680 112.7 700 111.3 720 113C740 114.7 760 119.3 780 128.5C800 137.7 820 151.3 840 150C860 148.7 880 132.3 890 124.2L900 116L900 451L890 451C880 451 860 451 840 451C820 451 800 451 780 451C760 451 740 451 720 451C700 451 680 451 660 451C640 451 620 451 600 451C580 451 560 451 540 451C520 451 500 451 480 451C460 451 440 451 420 451C400 451 380 451 360 451C340 451 320 451 300 451C280 451 260 451 240 451C220 451 200 451 180 451C160 451 140 451 120 451C100 451 80 451 60 451C40 451 20 451 10 451L0 451Z" fill="#b9b9b9"></path><path d="M0 153L10 152.5C20 152 40 151 60 157.2C80 163.3 100 176.7 120 183.2C140 189.7 160 189.3 180 184.2C200 179 220 169 240 170C260 171 280 183 300 183.5C320 184 340 173 360 172C380 171 400 180 420 182.2C440 184.3 460 179.7 480 182C500 184.3 520 193.7 540 190.5C560 187.3 580 171.7 600 170.8C620 170 640 184 660 187.3C680 190.7 700 183.3 720 177C740 170.7 760 165.3 780 169C800 172.7 820 185.3 840 187.7C860 190 880 182 890 178L900 174L900 451L890 451C880 451 860 451 840 451C820 451 800 451 780 451C760 451 740 451 720 451C700 451 680 451 660 451C640 451 620 451 600 451C580 451 560 451 540 451C520 451 500 451 480 451C460 451 440 451 420 451C400 451 380 451 360 451C340 451 320 451 300 451C280 451 260 451 240 451C220 451 200 451 180 451C160 451 140 451 120 451C100 451 80 451 60 451C40 451 20 451 10 451L0 451Z" fill="#979797"></path><path d="M0 225L10 225.3C20 225.7 40 226.3 60 228.5C80 230.7 100 234.3 120 234.3C140 234.3 160 230.7 180 230.7C200 230.7 220 234.3 240 230.5C260 226.7 280 215.3 300 208.2C320 201 340 198 360 204.5C380 211 400 227 420 236.5C440 246 460 249 480 248.7C500 248.3 520 244.7 540 237.2C560 229.7 580 218.3 600 220.7C620 223 640 239 660 240.7C680 242.3 700 229.7 720 226.8C740 224 760 231 780 234C800 237 820 236 840 231.8C860 227.7 880 220.3 890 216.7L900 213L900 451L890 451C880 451 860 451 840 451C820 451 800 451 780 451C760 451 740 451 720 451C700 451 680 451 660 451C640 451 620 451 600 451C580 451 560 451 540 451C520 451 500 451 480 451C460 451 440 451 420 451C400 451 380 451 360 451C340 451 320 451 300 451C280 451 260 451 240 451C220 451 200 451 180 451C160 451 140 451 120 451C100 451 80 451 60 451C40 451 20 451 10 451L0 451Z" fill="#777777"></path><path d="M0 282L10 278.5C20 275 40 268 60 264.8C80 261.7 100 262.3 120 267.7C140 273 160 283 180 283.2C200 283.3 220 273.7 240 267.5C260 261.3 280 258.7 300 260.5C320 262.3 340 268.7 360 269.7C380 270.7 400 266.3 420 260.8C440 255.3 460 248.7 480 250.5C500 252.3 520 262.7 540 266.7C560 270.7 580 268.3 600 271.2C620 274 640 282 660 281.5C680 281 700 272 720 271C740 270 760 277 780 281.3C800 285.7 820 287.3 840 288.2C860 289 880 289 890 289L900 289L900 451L890 451C880 451 860 451 840 451C820 451 800 451 780 451C760 451 740 451 720 451C700 451 680 451 660 451C640 451 620 451 600 451C580 451 560 451 540 451C520 451 500 451 480 451C460 451 440 451 420 451C400 451 380 451 360 451C340 451 320 451 300 451C280 451 260 451 240 451C220 451 200 451 180 451C160 451 140 451 120 451C100 451 80 451 60 451C40 451 20 451 10 451L0 451Z" fill="#585858"></path><path d="M0 335L10 330.3C20 325.7 40 316.3 60 311.3C80 306.3 100 305.7 120 311.3C140 317 160 329 180 332.5C200 336 220 331 240 325.7C260 320.3 280 314.7 300 314.5C320 314.3 340 319.7 360 320.8C380 322 400 319 420 316.5C440 314 460 312 480 314.7C500 317.3 520 324.7 540 322.2C560 319.7 580 307.3 600 300.7C620 294 640 293 660 299.8C680 306.7 700 321.3 720 323.3C740 325.3 760 314.7 780 314C800 313.3 820 322.7 840 327.7C860 332.7 880 333.3 890 333.7L900 334L900 451L890 451C880 451 860 451 840 451C820 451 800 451 780 451C760 451 740 451 720 451C700 451 680 451 660 451C640 451 620 451 600 451C580 451 560 451 540 451C520 451 500 451 480 451C460 451 440 451 420 451C400 451 380 451 360 451C340 451 320 451 300 451C280 451 260 451 240 451C220 451 200 451 180 451C160 451 140 451 120 451C100 451 80 451 60 451C40 451 20 451 10 451L0 451Z" fill="#3b3b3b"></path><path d="M0 383L10 383.8C20 384.7 40 386.3 60 386.8C80 387.3 100 386.7 120 384.8C140 383 160 380 180 374.3C200 368.7 220 360.3 240 360.5C260 360.7 280 369.3 300 367.5C320 365.7 340 353.3 360 352C380 350.7 400 360.3 420 359.5C440 358.7 460 347.3 480 349.2C500 351 520 366 540 370C560 374 580 367 600 360.7C620 354.3 640 348.7 660 344.3C680 340 700 337 720 342.2C740 347.3 760 360.7 780 367.3C800 374 820 374 840 367.5C860 361 880 348 890 341.5L900 335L900 451L890 451C880 451 860 451 840 451C820 451 800 451 780 451C760 451 740 451 720 451C700 451 680 451 660 451C640 451 620 451 600 451C580 451 560 451 540 451C520 451 500 451 480 451C460 451 440 451 420 451C400 451 380 451 360 451C340 451 320 451 300 451C280 451 260 451 240 451C220 451 200 451 180 451C160 451 140 451 120 451C100 451 80 451 60 451C40 451 20 451 10 451L0 451Z" fill="#212121"></path><path d="M0 405L10 399.7C20 394.3 40 383.7 60 387.8C80 392 100 411 120 419C140 427 160 424 180 423.2C200 422.3 220 423.7 240 423.3C260 423 280 421 300 417.2C320 413.3 340 407.7 360 402.3C380 397 400 392 420 397.5C440 403 460 419 480 420.3C500 421.7 520 408.3 540 399.2C560 390 580 385 600 381.5C620 378 640 376 660 383.8C680 391.7 700 409.3 720 412.2C740 415 760 403 780 396C800 389 820 387 840 391.8C860 396.7 880 408.3 890 414.2L900 420L900 451L890 451C880 451 860 451 840 451C820 451 800 451 780 451C760 451 740 451 720 451C700 451 680 451 660 451C640 451 620 451 600 451C580 451 560 451 540 451C520 451 500 451 480 451C460 451 440 451 420 451C400 451 380 451 360 451C340 451 320 451 300 451C280 451 260 451 240 451C220 451 200 451 180 451C160 451 140 451 120 451C100 451 80 451 60 451C40 451 20 451 10 451L0 451Z" fill="#000000"></path></svg>