<svg id="visual" viewBox="0 0 900 450" width="900" height="450" xmlns="http://www.w3.org/2000/svg" xmlns:xlink="http://www.w3.org/1999/xlink" version="1.1"><rect x="0" y="0" width="900" height="450" fill="#ffffff"></rect><path d="M73 450L49 450L49 400L85 400L85 350L61 350L61 300L45 300L45 250L96 250L96 200L63 200L63 150L51 150L51 100L78 100L78 50L98 50L98 0L900 0L900 50L900 50L900 100L900 100L900 150L900 150L900 200L900 200L900 250L900 250L900 300L900 300L900 350L900 350L900 400L900 400L900 450L900 450Z" fill="#ffffff"></path><path d="M130 450L118 450L118 400L127 400L127 350L159 350L159 300L132 300L132 250L115 250L115 200L135 200L135 150L144 150L144 100L158 100L158 50L153 50L153 0L900 0L900 50L900 50L900 100L900 100L900 150L900 150L900 200L900 200L900 250L900 250L900 300L900 300L900 350L900 350L900 400L900 400L900 450L900 450Z" fill="#e9e9e9"></path><path d="M231 450L232 450L232 400L204 400L204 350L224 350L224 300L230 300L230 250L199 250L199 200L217 200L217 150L231 150L231 100L223 100L223 50L228 50L228 0L900 0L900 50L900 50L900 100L900 100L900 150L900 150L900 200L900 200L900 250L900 250L900 300L900 300L900 350L900 350L900 400L900 400L900 450L900 450Z" fill="#d3d3d3"></path><path d="M288 450L296 450L296 400L276 400L276 350L270 350L270 300L287 300L287 250L285 250L285 200L297 200L297 150L296 150L296 100L279 100L279 50L305 50L305 0L900 0L900 50L900 50L900 100L900 100L900 150L900 150L900 200L900 200L900 250L900 250L900 300L900 300L900 350L900 350L900 400L900 400L900 450L900 450Z" fill="#bebebe"></path><path d="M322 450L360 450L360 400L335 400L335 350L337 350L337 300L357 300L357 250L327 250L327 200L335 200L335 150L373 150L373 100L352 100L352 50L321 50L321 0L900 0L900 50L900 50L900 100L900 100L900 150L900 150L900 200L900 200L900 250L900 250L900 300L900 300L900 350L900 350L900 400L900 400L900 450L900 450Z" fill="#a9a9a9"></path><path d="M426 450L428 450L428 400L421 400L421 350L417 350L417 300L420 300L420 250L406 250L406 200L438 200L438 150L404 150L404 100L414 100L414 50L422 50L422 0L900 0L900 50L900 50L900 100L900 100L900 150L900 150L900 200L900 200L900 250L900 250L900 300L900 300L900 350L900 350L900 400L900 400L900 450L900 450Z" fill="#949494"></path><path d="M489 450L503 450L503 400L496 400L496 350L483 350L483 300L492 300L492 250L483 250L483 200L500 200L500 150L495 150L495 100L492 100L492 50L480 50L480 0L900 0L900 50L900 50L900 100L900 100L900 150L900 150L900 200L900 200L900 250L900 250L900 300L900 300L900 350L900 350L900 400L900 400L900 450L900 450Z" fill="#808080"></path><path d="M571 450L570 450L570 400L558 400L558 350L540 350L540 300L537 300L537 250L529 250L529 200L547 200L547 150L552 150L552 100L529 100L529 50L558 50L558 0L900 0L900 50L900 50L900 100L900 100L900 150L900 150L900 200L900 200L900 250L900 250L900 300L900 300L900 350L900 350L900 400L900 400L900 450L900 450Z" fill="#6d6d6d"></path><path d="M626 450L634 450L634 400L628 400L628 350L625 350L625 300L624 300L624 250L648 250L648 200L617 200L617 150L598 150L598 100L613 100L613 50L644 50L644 0L900 0L900 50L900 50L900 100L900 100L900 150L900 150L900 200L900 200L900 250L900 250L900 300L900 300L900 350L900 350L900 400L900 400L900 450L900 450Z" fill="#5a5a5a"></path><path d="M697 450L710 450L710 400L693 400L693 350L688 350L688 300L675 300L675 250L694 250L694 200L701 200L701 150L719 150L719 100L681 100L681 50L682 50L682 0L900 0L900 50L900 50L900 100L900 100L900 150L900 150L900 200L900 200L900 250L900 250L900 300L900 300L900 350L900 350L900 400L900 400L900 450L900 450Z" fill="#484848"></path><path d="M757 450L744 450L744 400L756 400L756 350L742 350L742 300L763 300L763 250L762 250L762 200L789 200L789 150L735 150L735 100L738 100L738 50L787 50L787 0L900 0L900 50L900 50L900 100L900 100L900 150L900 150L900 200L900 200L900 250L900 250L900 300L900 300L900 350L900 350L900 400L900 400L900 450L900 450Z" fill="#373737"></path><path d="M809 450L826 450L826 400L812 400L812 350L859 350L859 300L839 300L839 250L837 250L837 200L835 200L835 150L849 150L849 100L838 100L838 50L857 50L857 0L900 0L900 50L900 50L900 100L900 100L900 150L900 150L900 200L900 200L900 250L900 250L900 300L900 300L900 350L900 350L900 400L900 400L900 450L900 450Z" fill="#262626"></path></svg>