<svg id="visual" viewBox="0 0 960 540" width="960" height="540" xmlns="http://www.w3.org/2000/svg" xmlns:xlink="http://www.w3.org/1999/xlink" version="1.1"><g stroke-width="1" stroke-linejoin="bevel"><path d="M515.3 278L551.3 165L439.7 252Z" fill="#1d1d1d" stroke="#1d1d1d"></path><path d="M551.3 165L404.7 191L439.7 252Z" fill="#161616" stroke="#161616"></path><path d="M551.3 165L435.7 87L404.7 191Z" fill="#1d1d1d" stroke="#1d1d1d"></path><path d="M515.3 278L624 195L551.3 165Z" fill="#3c3c3c" stroke="#3c3c3c"></path><path d="M551.3 165L617 100L542.3 112Z" fill="#1d1d1d" stroke="#1d1d1d"></path><path d="M542.3 112L435.7 87L551.3 165Z" fill="#000000" stroke="#000000"></path><path d="M402.7 373L532.3 363L515.3 278Z" fill="#343434" stroke="#343434"></path><path d="M515.3 278L649 272L624 195Z" fill="#4c4c4c" stroke="#4c4c4c"></path><path d="M624 195L617 100L551.3 165Z" fill="#343434" stroke="#343434"></path><path d="M542.3 112L545.3 0L435.7 87Z" fill="#343434" stroke="#343434"></path><path d="M646 344L649 272L515.3 278Z" fill="#242424" stroke="#242424"></path><path d="M624 195L741.7 198L617 100Z" fill="#555555" stroke="#555555"></path><path d="M331 99L317 166L404.7 191Z" fill="#1d1d1d" stroke="#1d1d1d"></path><path d="M404.7 191L325 288L439.7 252Z" fill="#1d1d1d" stroke="#1d1d1d"></path><path d="M439.7 252L402.7 373L515.3 278Z" fill="#242424" stroke="#242424"></path><path d="M325 288L402.7 373L439.7 252Z" fill="#444444" stroke="#444444"></path><path d="M317 166L325 288L404.7 191Z" fill="#000000" stroke="#000000"></path><path d="M435.7 87L331 99L404.7 191Z" fill="#3c3c3c" stroke="#3c3c3c"></path><path d="M532.3 363L646 344L515.3 278Z" fill="#161616" stroke="#161616"></path><path d="M617 100L545.3 0L542.3 112Z" fill="#242424" stroke="#242424"></path><path d="M435.7 87L336 0L331 99Z" fill="#242424" stroke="#242424"></path><path d="M545.3 0L436.7 0L435.7 87Z" fill="#4c4c4c" stroke="#4c4c4c"></path><path d="M402.7 373L529.3 430L532.3 363Z" fill="#444444" stroke="#444444"></path><path d="M532.3 363L529.3 430L646 344Z" fill="#343434" stroke="#343434"></path><path d="M732.7 0L619 0L617 100Z" fill="#3c3c3c" stroke="#3c3c3c"></path><path d="M617 100L619 0L545.3 0Z" fill="#555555" stroke="#555555"></path><path d="M749.7 254L741.7 198L649 272Z" fill="#444444" stroke="#444444"></path><path d="M649 272L741.7 198L624 195Z" fill="#000000" stroke="#000000"></path><path d="M325 288L315 380L402.7 373Z" fill="#0d0d0d" stroke="#0d0d0d"></path><path d="M402.7 373L426.7 454L529.3 430Z" fill="#343434" stroke="#343434"></path><path d="M224.3 379L315 380L325 288Z" fill="#161616" stroke="#161616"></path><path d="M306 432L426.7 454L402.7 373Z" fill="#000000" stroke="#000000"></path><path d="M744.7 365L749.7 254L649 272Z" fill="#000000" stroke="#000000"></path><path d="M436.7 0L336 0L435.7 87Z" fill="#000000" stroke="#000000"></path><path d="M202.3 87L224.3 201L317 166Z" fill="#242424" stroke="#242424"></path><path d="M202.3 87L317 166L331 99Z" fill="#1d1d1d" stroke="#1d1d1d"></path><path d="M317 166L224.3 201L325 288Z" fill="#2c2c2c" stroke="#2c2c2c"></path><path d="M224.3 201L227.3 269L325 288Z" fill="#343434" stroke="#343434"></path><path d="M741.7 198L769.7 111L617 100Z" fill="#0d0d0d" stroke="#0d0d0d"></path><path d="M840.3 186L769.7 111L741.7 198Z" fill="#2c2c2c" stroke="#2c2c2c"></path><path d="M224.3 379L306 432L315 380Z" fill="#242424" stroke="#242424"></path><path d="M315 380L306 432L402.7 373Z" fill="#242424" stroke="#242424"></path><path d="M630 472L744.7 365L646 344Z" fill="#242424" stroke="#242424"></path><path d="M646 344L744.7 365L649 272Z" fill="#3c3c3c" stroke="#3c3c3c"></path><path d="M749.7 254L840.3 186L741.7 198Z" fill="#4c4c4c" stroke="#4c4c4c"></path><path d="M529.3 430L630 472L646 344Z" fill="#2c2c2c" stroke="#2c2c2c"></path><path d="M518.3 540L630 472L529.3 430Z" fill="#343434" stroke="#343434"></path><path d="M769.7 111L732.7 0L617 100Z" fill="#000000" stroke="#000000"></path><path d="M336 0L202.3 87L331 99Z" fill="#242424" stroke="#242424"></path><path d="M112.7 348L224.3 379L227.3 269Z" fill="#3c3c3c" stroke="#3c3c3c"></path><path d="M192.3 460L224.3 379L112.7 348Z" fill="#0d0d0d" stroke="#0d0d0d"></path><path d="M227.3 269L224.3 379L325 288Z" fill="#1d1d1d" stroke="#1d1d1d"></path><path d="M449.7 540L518.3 540L426.7 454Z" fill="#000000" stroke="#000000"></path><path d="M426.7 454L518.3 540L529.3 430Z" fill="#000000" stroke="#000000"></path><path d="M316 540L426.7 454L306 432Z" fill="#242424" stroke="#242424"></path><path d="M316 540L449.7 540L426.7 454Z" fill="#444444" stroke="#444444"></path><path d="M744.7 365L829.3 264L749.7 254Z" fill="#444444" stroke="#444444"></path><path d="M769.7 111L865.3 0L732.7 0Z" fill="#2c2c2c" stroke="#2c2c2c"></path><path d="M829.3 264L840.3 186L749.7 254Z" fill="#000000" stroke="#000000"></path><path d="M630 472L747.7 464L744.7 365Z" fill="#555555" stroke="#555555"></path><path d="M744.7 365L871.3 345L829.3 264Z" fill="#0d0d0d" stroke="#0d0d0d"></path><path d="M636 540L747.7 464L630 472Z" fill="#343434" stroke="#343434"></path><path d="M518.3 540L636 540L630 472Z" fill="#1d1d1d" stroke="#1d1d1d"></path><path d="M336 0L205.3 0L202.3 87Z" fill="#555555" stroke="#555555"></path><path d="M960 195L853.3 112L840.3 186Z" fill="#0d0d0d" stroke="#0d0d0d"></path><path d="M840.3 186L853.3 112L769.7 111Z" fill="#161616" stroke="#161616"></path><path d="M207.3 540L316 540L306 432Z" fill="#2c2c2c" stroke="#2c2c2c"></path><path d="M224.3 379L192.3 460L306 432Z" fill="#343434" stroke="#343434"></path><path d="M96.7 273L227.3 269L224.3 201Z" fill="#3c3c3c" stroke="#3c3c3c"></path><path d="M205.3 0L118.7 85L202.3 87Z" fill="#161616" stroke="#161616"></path><path d="M202.3 87L92.7 175L224.3 201Z" fill="#343434" stroke="#343434"></path><path d="M873.3 435L871.3 345L744.7 365Z" fill="#4c4c4c" stroke="#4c4c4c"></path><path d="M960 258L960 195L840.3 186Z" fill="#242424" stroke="#242424"></path><path d="M92.7 175L96.7 273L224.3 201Z" fill="#343434" stroke="#343434"></path><path d="M118.7 85L92.7 175L202.3 87Z" fill="#242424" stroke="#242424"></path><path d="M96.7 273L112.7 348L227.3 269Z" fill="#1d1d1d" stroke="#1d1d1d"></path><path d="M960 98L865.3 0L853.3 112Z" fill="#2c2c2c" stroke="#2c2c2c"></path><path d="M853.3 112L865.3 0L769.7 111Z" fill="#000000" stroke="#000000"></path><path d="M747.7 464L873.3 435L744.7 365Z" fill="#3c3c3c" stroke="#3c3c3c"></path><path d="M636 540L769.7 540L747.7 464Z" fill="#343434" stroke="#343434"></path><path d="M126.7 464L207.3 540L192.3 460Z" fill="#2c2c2c" stroke="#2c2c2c"></path><path d="M192.3 460L207.3 540L306 432Z" fill="#444444" stroke="#444444"></path><path d="M769.7 540L873.3 435L747.7 464Z" fill="#444444" stroke="#444444"></path><path d="M960 258L840.3 186L829.3 264Z" fill="#3c3c3c" stroke="#3c3c3c"></path><path d="M0 448L126.7 464L112.7 348Z" fill="#242424" stroke="#242424"></path><path d="M112.7 348L126.7 464L192.3 460Z" fill="#2c2c2c" stroke="#2c2c2c"></path><path d="M205.3 0L98.7 0L118.7 85Z" fill="#1d1d1d" stroke="#1d1d1d"></path><path d="M0 76L0 164L92.7 175Z" fill="#161616" stroke="#161616"></path><path d="M960 258L829.3 264L871.3 345Z" fill="#2c2c2c" stroke="#2c2c2c"></path><path d="M960 383L960 258L871.3 345Z" fill="#242424" stroke="#242424"></path><path d="M960 195L960 98L853.3 112Z" fill="#444444" stroke="#444444"></path><path d="M960 454L960 383L873.3 435Z" fill="#343434" stroke="#343434"></path><path d="M873.3 435L960 383L871.3 345Z" fill="#1d1d1d" stroke="#1d1d1d"></path><path d="M0 76L92.7 175L118.7 85Z" fill="#4c4c4c" stroke="#4c4c4c"></path><path d="M92.7 175L0 274L96.7 273Z" fill="#4c4c4c" stroke="#4c4c4c"></path><path d="M96.7 273L0 354L112.7 348Z" fill="#000000" stroke="#000000"></path><path d="M0 164L0 274L92.7 175Z" fill="#444444" stroke="#444444"></path><path d="M769.7 540L876.3 540L873.3 435Z" fill="#2c2c2c" stroke="#2c2c2c"></path><path d="M960 98L960 0L865.3 0Z" fill="#2c2c2c" stroke="#2c2c2c"></path><path d="M98.7 0L0 76L118.7 85Z" fill="#4c4c4c" stroke="#4c4c4c"></path><path d="M0 274L0 354L96.7 273Z" fill="#1d1d1d" stroke="#1d1d1d"></path><path d="M126.7 464L92.7 540L207.3 540Z" fill="#161616" stroke="#161616"></path><path d="M0 448L92.7 540L126.7 464Z" fill="#0d0d0d" stroke="#0d0d0d"></path><path d="M876.3 540L960 454L873.3 435Z" fill="#161616" stroke="#161616"></path><path d="M98.7 0L0 0L0 76Z" fill="#3c3c3c" stroke="#3c3c3c"></path><path d="M0 354L0 448L112.7 348Z" fill="#000000" stroke="#000000"></path><path d="M876.3 540L960 540L960 454Z" fill="#2c2c2c" stroke="#2c2c2c"></path><path d="M0 448L0 540L92.7 540Z" fill="#444444" stroke="#444444"></path></g></svg>