<svg id="visual" viewBox="0 0 960 540" width="960" height="540" xmlns="http://www.w3.org/2000/svg" xmlns:xlink="http://www.w3.org/1999/xlink" version="1.1"><path d="M0 158L16 168.7C32 179.3 64 200.7 96 200.7C128 200.7 160 179.3 192 184.8C224 190.3 256 222.7 288 224.3C320 226 352 197 384 185.3C416 173.7 448 179.3 480 189.3C512 199.3 544 213.7 576 215.3C608 217 640 206 672 191.5C704 177 736 159 768 141C800 123 832 105 864 110.5C896 116 928 145 944 159.5L960 174L960 0L944 0C928 0 896 0 864 0C832 0 800 0 768 0C736 0 704 0 672 0C640 0 608 0 576 0C544 0 512 0 480 0C448 0 416 0 384 0C352 0 320 0 288 0C256 0 224 0 192 0C160 0 128 0 96 0C64 0 32 0 16 0L0 0Z" fill="#000000"></path><path d="M0 293L16 295.7C32 298.3 64 303.7 96 306.3C128 309 160 309 192 311.7C224 314.3 256 319.7 288 335C320 350.3 352 375.7 384 367.5C416 359.3 448 317.7 480 307.7C512 297.7 544 319.3 576 316.7C608 314 640 287 672 278C704 269 736 278 768 282.5C800 287 832 287 864 281.7C896 276.3 928 265.7 944 260.3L960 255L960 172L944 157.5C928 143 896 114 864 108.5C832 103 800 121 768 139C736 157 704 175 672 189.5C640 204 608 215 576 213.3C544 211.7 512 197.3 480 187.3C448 177.3 416 171.7 384 183.3C352 195 320 224 288 222.3C256 220.7 224 188.3 192 182.8C160 177.3 128 198.7 96 198.7C64 198.7 32 177.3 16 166.7L0 156Z" fill="#3b3b3b"></path><path d="M0 417L16 411.5C32 406 64 395 96 382.3C128 369.7 160 355.3 192 354.5C224 353.7 256 366.3 288 382.5C320 398.7 352 418.3 384 413.8C416 409.3 448 380.7 480 370.8C512 361 544 370 576 363.7C608 357.3 640 335.7 672 324.8C704 314 736 314 768 321.2C800 328.3 832 342.7 864 349.8C896 357 928 357 944 357L960 357L960 253L944 258.3C928 263.7 896 274.3 864 279.7C832 285 800 285 768 280.5C736 276 704 267 672 276C640 285 608 312 576 314.7C544 317.3 512 295.7 480 305.7C448 315.7 416 357.3 384 365.5C352 373.7 320 348.3 288 333C256 317.7 224 312.3 192 309.7C160 307 128 307 96 304.3C64 301.7 32 296.3 16 293.7L0 291Z" fill="#777777"></path><path d="M0 514L16 510.3C32 506.7 64 499.3 96 498.5C128 497.7 160 503.3 192 496.2C224 489 256 469 288 468C320 467 352 485 384 486C416 487 448 471 480 472.8C512 474.7 544 494.3 576 497C608 499.7 640 485.3 672 472.7C704 460 736 449 768 454.3C800 459.7 832 481.3 864 485.8C896 490.3 928 477.7 944 471.3L960 465L960 355L944 355C928 355 896 355 864 347.8C832 340.7 800 326.3 768 319.2C736 312 704 312 672 322.8C640 333.7 608 355.3 576 361.7C544 368 512 359 480 368.8C448 378.7 416 407.3 384 411.8C352 416.3 320 396.7 288 380.5C256 364.3 224 351.7 192 352.5C160 353.3 128 367.7 96 380.3C64 393 32 404 16 409.5L0 415Z" fill="#b9b9b9"></path><path d="M0 541L16 541C32 541 64 541 96 541C128 541 160 541 192 541C224 541 256 541 288 541C320 541 352 541 384 541C416 541 448 541 480 541C512 541 544 541 576 541C608 541 640 541 672 541C704 541 736 541 768 541C800 541 832 541 864 541C896 541 928 541 944 541L960 541L960 463L944 469.3C928 475.7 896 488.3 864 483.8C832 479.3 800 457.7 768 452.3C736 447 704 458 672 470.7C640 483.3 608 497.7 576 495C544 492.3 512 472.7 480 470.8C448 469 416 485 384 484C352 483 320 465 288 466C256 467 224 487 192 494.2C160 501.3 128 495.7 96 496.5C64 497.3 32 504.7 16 508.3L0 512Z" fill="#ffffff"></path></svg>