<svg id="visual" viewBox="0 0 960 540" width="960" height="540" xmlns="http://www.w3.org/2000/svg" xmlns:xlink="http://www.w3.org/1999/xlink" version="1.1"><path d="M0 147L17.8 139.8C35.7 132.7 71.3 118.3 106.8 114.7C142.3 111 177.7 118 213.2 120.7C248.7 123.3 284.3 121.7 320 118.2C355.7 114.7 391.3 109.3 426.8 104.8C462.3 100.3 497.7 96.7 533.2 107.3C568.7 118 604.3 143 640 150.2C675.7 157.3 711.3 146.7 746.8 134.2C782.3 121.7 817.7 107.3 853.2 101C888.7 94.7 924.3 96.3 942.2 97.2L960 98L960 0L942.2 0C924.3 0 888.7 0 853.2 0C817.7 0 782.3 0 746.8 0C711.3 0 675.7 0 640 0C604.3 0 568.7 0 533.2 0C497.7 0 462.3 0 426.8 0C391.3 0 355.7 0 320 0C284.3 0 248.7 0 213.2 0C177.7 0 142.3 0 106.8 0C71.3 0 35.7 0 17.8 0L0 0Z" fill="#000000"></path><path d="M0 195L17.8 189.7C35.7 184.3 71.3 173.7 106.8 167.5C142.3 161.3 177.7 159.7 213.2 159.7C248.7 159.7 284.3 161.3 320 161.3C355.7 161.3 391.3 159.7 426.8 160.5C462.3 161.3 497.7 164.7 533.2 174.5C568.7 184.3 604.3 200.7 640 200.7C675.7 200.7 711.3 184.3 746.8 171.7C782.3 159 817.7 150 853.2 144.7C888.7 139.3 924.3 137.7 942.2 136.8L960 136L960 96L942.2 95.2C924.3 94.3 888.7 92.7 853.2 99C817.7 105.3 782.3 119.7 746.8 132.2C711.3 144.7 675.7 155.3 640 148.2C604.3 141 568.7 116 533.2 105.3C497.7 94.7 462.3 98.3 426.8 102.8C391.3 107.3 355.7 112.7 320 116.2C284.3 119.7 248.7 121.3 213.2 118.7C177.7 116 142.3 109 106.8 112.7C71.3 116.3 35.7 130.7 17.8 137.8L0 145Z" fill="#212121"></path><path d="M0 249L17.8 243.7C35.7 238.3 71.3 227.7 106.8 221.5C142.3 215.3 177.7 213.7 213.2 208.3C248.7 203 284.3 194 320 194C355.7 194 391.3 203 426.8 206.5C462.3 210 497.7 208 533.2 212.5C568.7 217 604.3 228 640 230.7C675.7 233.3 711.3 227.7 746.8 217.7C782.3 207.7 817.7 193.3 853.2 183.5C888.7 173.7 924.3 168.3 942.2 165.7L960 163L960 134L942.2 134.8C924.3 135.7 888.7 137.3 853.2 142.7C817.7 148 782.3 157 746.8 169.7C711.3 182.3 675.7 198.7 640 198.7C604.3 198.7 568.7 182.3 533.2 172.5C497.7 162.7 462.3 159.3 426.8 158.5C391.3 157.7 355.7 159.3 320 159.3C284.3 159.3 248.7 157.7 213.2 157.7C177.7 157.7 142.3 159.3 106.8 165.5C71.3 171.7 35.7 182.3 17.8 187.7L0 193Z" fill="#3b3b3b"></path><path d="M0 282L17.8 277.5C35.7 273 71.3 264 106.8 256.8C142.3 249.7 177.7 244.3 213.2 239.8C248.7 235.3 284.3 231.7 320 235.2C355.7 238.7 391.3 249.3 426.8 253.8C462.3 258.3 497.7 256.7 533.2 261.2C568.7 265.7 604.3 276.3 640 276.3C675.7 276.3 711.3 265.7 746.8 254.8C782.3 244 817.7 233 853.2 221.3C888.7 209.7 924.3 197.3 942.2 191.2L960 185L960 161L942.2 163.7C924.3 166.3 888.7 171.7 853.2 181.5C817.7 191.3 782.3 205.7 746.8 215.7C711.3 225.7 675.7 231.3 640 228.7C604.3 226 568.7 215 533.2 210.5C497.7 206 462.3 208 426.8 204.5C391.3 201 355.7 192 320 192C284.3 192 248.7 201 213.2 206.3C177.7 211.7 142.3 213.3 106.8 219.5C71.3 225.7 35.7 236.3 17.8 241.7L0 247Z" fill="#585858"></path><path d="M0 309L17.8 305.3C35.7 301.7 71.3 294.3 106.8 285.3C142.3 276.3 177.7 265.7 213.2 259.3C248.7 253 284.3 251 320 254.5C355.7 258 391.3 267 426.8 272.5C462.3 278 497.7 280 533.2 286.3C568.7 292.7 604.3 303.3 640 304.2C675.7 305 711.3 296 746.8 286.2C782.3 276.3 817.7 265.7 853.2 253.2C888.7 240.7 924.3 226.3 942.2 219.2L960 212L960 183L942.2 189.2C924.3 195.3 888.7 207.7 853.2 219.3C817.7 231 782.3 242 746.8 252.8C711.3 263.7 675.7 274.3 640 274.3C604.3 274.3 568.7 263.7 533.2 259.2C497.7 254.7 462.3 256.3 426.8 251.8C391.3 247.3 355.7 236.7 320 233.2C284.3 229.7 248.7 233.3 213.2 237.8C177.7 242.3 142.3 247.7 106.8 254.8C71.3 262 35.7 271 17.8 275.5L0 280Z" fill="#777777"></path><path d="M0 401L17.8 395.5C35.7 390 71.3 379 106.8 365.5C142.3 352 177.7 336 213.2 331.5C248.7 327 284.3 334 320 339.3C355.7 344.7 391.3 348.3 426.8 352C462.3 355.7 497.7 359.3 533.2 362C568.7 364.7 604.3 366.3 640 360.8C675.7 355.3 711.3 342.7 746.8 333.7C782.3 324.7 817.7 319.3 853.2 311.3C888.7 303.3 924.3 292.7 942.2 287.3L960 282L960 210L942.2 217.2C924.3 224.3 888.7 238.7 853.2 251.2C817.7 263.7 782.3 274.3 746.8 284.2C711.3 294 675.7 303 640 302.2C604.3 301.3 568.7 290.7 533.2 284.3C497.7 278 462.3 276 426.8 270.5C391.3 265 355.7 256 320 252.5C284.3 249 248.7 251 213.2 257.3C177.7 263.7 142.3 274.3 106.8 283.3C71.3 292.3 35.7 299.7 17.8 303.3L0 307Z" fill="#979797"></path><path d="M0 471L17.8 469.2C35.7 467.3 71.3 463.7 106.8 461.8C142.3 460 177.7 460 213.2 458.2C248.7 456.3 284.3 452.7 320 455.3C355.7 458 391.3 467 426.8 471.5C462.3 476 497.7 476 533.2 477C568.7 478 604.3 480 640 474.7C675.7 469.3 711.3 456.7 746.8 456.7C782.3 456.7 817.7 469.3 853.2 473.8C888.7 478.3 924.3 474.7 942.2 472.8L960 471L960 280L942.2 285.3C924.3 290.7 888.7 301.3 853.2 309.3C817.7 317.3 782.3 322.7 746.8 331.7C711.3 340.7 675.7 353.3 640 358.8C604.3 364.3 568.7 362.7 533.2 360C497.7 357.3 462.3 353.7 426.8 350C391.3 346.3 355.7 342.7 320 337.3C284.3 332 248.7 325 213.2 329.5C177.7 334 142.3 350 106.8 363.5C71.3 377 35.7 388 17.8 393.5L0 399Z" fill="#b9b9b9"></path><path d="M0 514L17.8 514C35.7 514 71.3 514 106.8 514.8C142.3 515.7 177.7 517.3 213.2 516.5C248.7 515.7 284.3 512.3 320 510.7C355.7 509 391.3 509 426.8 508C462.3 507 497.7 505 533.2 506.7C568.7 508.3 604.3 513.7 640 513.7C675.7 513.7 711.3 508.3 746.8 506.7C782.3 505 817.7 507 853.2 509.7C888.7 512.3 924.3 515.7 942.2 517.3L960 519L960 469L942.2 470.8C924.3 472.7 888.7 476.3 853.2 471.8C817.7 467.3 782.3 454.7 746.8 454.7C711.3 454.7 675.7 467.3 640 472.7C604.3 478 568.7 476 533.2 475C497.7 474 462.3 474 426.8 469.5C391.3 465 355.7 456 320 453.3C284.3 450.7 248.7 454.3 213.2 456.2C177.7 458 142.3 458 106.8 459.8C71.3 461.7 35.7 465.3 17.8 467.2L0 469Z" fill="#dbdbdb"></path><path d="M0 541L17.8 541C35.7 541 71.3 541 106.8 541C142.3 541 177.7 541 213.2 541C248.7 541 284.3 541 320 541C355.7 541 391.3 541 426.8 541C462.3 541 497.7 541 533.2 541C568.7 541 604.3 541 640 541C675.7 541 711.3 541 746.8 541C782.3 541 817.7 541 853.2 541C888.7 541 924.3 541 942.2 541L960 541L960 517L942.2 515.3C924.3 513.7 888.7 510.3 853.2 507.7C817.7 505 782.3 503 746.8 504.7C711.3 506.3 675.7 511.7 640 511.7C604.3 511.7 568.7 506.3 533.2 504.7C497.7 503 462.3 505 426.8 506C391.3 507 355.7 507 320 508.7C284.3 510.3 248.7 513.7 213.2 514.5C177.7 515.3 142.3 513.7 106.8 512.8C71.3 512 35.7 512 17.8 512L0 512Z" fill="#ffffff"></path></svg>