<svg 
id="visual"
viewBox="0 0 900 400" 
width="900" 
height="400" 
xmlns="http://www.w3.org/2000/svg" 
xmlns:xlink="http://www.w3.org/1999/xlink" 
version="1.1">
<rect 
x="0" 
y="0" 
width="900" 
height="400" 
fill="#000000">
</rect>
<path 
d="M0 301L21.5 280.8C43 260.7 86 220.3 128.8 188C171.7 155.7 214.3 131.3 257.2 138C300 144.7 343 182.3 385.8 216.5C428.7 250.7 471.3 281.3 514.2 273.2C557 265 600 218 642.8 215.7C685.7 213.3 728.3 255.7 771.2 277.8C814 300 857 302 878.5 303L900 304L900 401L878.5 401C857 401 814 401 771.2 401C728.3 401 685.7 401 642.8 401C600 401 557 401 514.2 401C471.3 401 428.7 401 385.8 401C343 401 300 401 257.2 401C214.3 401 171.7 401 128.8 401C86 401 43 401 21.5 401L0 401Z" 
fill="#262626" 
stroke-linecap="round" 
stroke-linejoin="miter">
</path>
</svg>