<svg 
id="visual" 
viewBox="0 0 900 200" 
width="900" 
height="200" 
xmlns="http://www.w3.org/2000/svg" 
xmlns:xlink="http://www.w3.org/1999/xlink" 
version="1.1">
<rect 
x="0" 
y="0" 
width="900" 
height="200" 
fill="#000000">
</rect>
<path 
d="M0 316L21.5 295C43 274 86 232 128.8 223.8C171.7 215.7 214.3 241.3 257.2 273C300 304.7 343 342.3 385.8 377.8C428.7 413.3 471.3 446.7 514.2 439.7C557 432.7 600 385.3 642.8 352.2C685.7 319 728.3 300 771.2 296.2C814 292.3 857 303.7 878.5 309.3L900 315L900 601L878.5 601C857 601 814 601 771.2 601C728.3 601 685.7 601 642.8 601C600 601 557 601 514.2 601C471.3 601 428.7 601 385.8 601C343 601 300 601 257.2 601C214.3 601 171.7 601 128.8 601C86 601 43 601 21.5 601L0 601Z" 
fill="#262626" 
stroke-linecap="round" 
stroke-linejoin="miter">
</path>
</svg>