<svg id="visual" viewBox="0 0 900 200" width="900" height="200" xmlns="http://www.w3.org/2000/svg" xmlns:xlink="http://www.w3.org/1999/xlink" version="1.1"><rect x="0" y="0" width="900" height="200" fill="#3c31dd"></rect><path d="M0 32L18.8 29.5C37.7 27 75.3 22 112.8 19.3C150.3 16.7 187.7 16.3 225.2 16.8C262.7 17.3 300.3 18.7 337.8 20.3C375.3 22 412.7 24 450.2 24.2C487.7 24.3 525.3 22.7 562.8 25C600.3 27.3 637.7 33.7 675.2 35.8C712.7 38 750.3 36 787.8 33C825.3 30 862.7 26 881.3 24L900 22L900 201L881.3 201C862.7 201 825.3 201 787.8 201C750.3 201 712.7 201 675.2 201C637.7 201 600.3 201 562.8 201C525.3 201 487.7 201 450.2 201C412.7 201 375.3 201 337.8 201C300.3 201 262.7 201 225.2 201C187.7 201 150.3 201 112.8 201C75.3 201 37.7 201 18.8 201L0 201Z" fill="#084537"></path><path d="M0 63L18.8 63C37.7 63 75.3 63 112.8 60.2C150.3 57.3 187.7 51.7 225.2 52.3C262.7 53 300.3 60 337.8 63.5C375.3 67 412.7 67 450.2 65.3C487.7 63.7 525.3 60.3 562.8 56.3C600.3 52.3 637.7 47.7 675.2 48C712.7 48.3 750.3 53.7 787.8 54.2C825.3 54.7 862.7 50.3 881.3 48.2L900 46L900 201L881.3 201C862.7 201 825.3 201 787.8 201C750.3 201 712.7 201 675.2 201C637.7 201 600.3 201 562.8 201C525.3 201 487.7 201 450.2 201C412.7 201 375.3 201 337.8 201C300.3 201 262.7 201 225.2 201C187.7 201 150.3 201 112.8 201C75.3 201 37.7 201 18.8 201L0 201Z" fill="#21522a"></path><path d="M0 81L18.8 83.7C37.7 86.3 75.3 91.7 112.8 92.5C150.3 93.3 187.7 89.7 225.2 86.7C262.7 83.7 300.3 81.3 337.8 80.3C375.3 79.3 412.7 79.7 450.2 78.3C487.7 77 525.3 74 562.8 74.3C600.3 74.7 637.7 78.3 675.2 80.2C712.7 82 750.3 82 787.8 84.3C825.3 86.7 862.7 91.3 881.3 93.7L900 96L900 201L881.3 201C862.7 201 825.3 201 787.8 201C750.3 201 712.7 201 675.2 201C637.7 201 600.3 201 562.8 201C525.3 201 487.7 201 450.2 201C412.7 201 375.3 201 337.8 201C300.3 201 262.7 201 225.2 201C187.7 201 150.3 201 112.8 201C75.3 201 37.7 201 18.8 201L0 201Z" fill="#465b12"></path><path d="M0 103L18.8 103.8C37.7 104.7 75.3 106.3 112.8 107C150.3 107.7 187.7 107.3 225.2 109.8C262.7 112.3 300.3 117.7 337.8 120.7C375.3 123.7 412.7 124.3 450.2 120.7C487.7 117 525.3 109 562.8 108.5C600.3 108 637.7 115 675.2 118.7C712.7 122.3 750.3 122.7 787.8 120.8C825.3 119 862.7 115 881.3 113L900 111L900 201L881.3 201C862.7 201 825.3 201 787.8 201C750.3 201 712.7 201 675.2 201C637.7 201 600.3 201 562.8 201C525.3 201 487.7 201 450.2 201C412.7 201 375.3 201 337.8 201C300.3 201 262.7 201 225.2 201C187.7 201 150.3 201 112.8 201C75.3 201 37.7 201 18.8 201L0 201Z" fill="#735f00"></path><path d="M0 140L18.8 138C37.7 136 75.3 132 112.8 134.5C150.3 137 187.7 146 225.2 146.7C262.7 147.3 300.3 139.7 337.8 136.7C375.3 133.7 412.7 135.3 450.2 134.7C487.7 134 525.3 131 562.8 131.8C600.3 132.7 637.7 137.3 675.2 141.2C712.7 145 750.3 148 787.8 147.2C825.3 146.3 862.7 141.7 881.3 139.3L900 137L900 201L881.3 201C862.7 201 825.3 201 787.8 201C750.3 201 712.7 201 675.2 201C637.7 201 600.3 201 562.8 201C525.3 201 487.7 201 450.2 201C412.7 201 375.3 201 337.8 201C300.3 201 262.7 201 225.2 201C187.7 201 150.3 201 112.8 201C75.3 201 37.7 201 18.8 201L0 201Z" fill="#a85700"></path><path d="M0 178L18.8 174.5C37.7 171 75.3 164 112.8 162.7C150.3 161.3 187.7 165.7 225.2 166C262.7 166.3 300.3 162.7 337.8 164.3C375.3 166 412.7 173 450.2 177.2C487.7 181.3 525.3 182.7 562.8 179.7C600.3 176.7 637.7 169.3 675.2 165C712.7 160.7 750.3 159.3 787.8 161.8C825.3 164.3 862.7 170.7 881.3 173.8L900 177L900 201L881.3 201C862.7 201 825.3 201 787.8 201C750.3 201 712.7 201 675.2 201C637.7 201 600.3 201 562.8 201C525.3 201 487.7 201 450.2 201C412.7 201 375.3 201 337.8 201C300.3 201 262.7 201 225.2 201C187.7 201 150.3 201 112.8 201C75.3 201 37.7 201 18.8 201L0 201Z" fill="#dd3f31"></path></svg>