<svg id="visual" viewBox="0 0 900 450" width="900" height="450" xmlns="http://www.w3.org/2000/svg" xmlns:xlink="http://www.w3.org/1999/xlink" version="1.1"><rect x="0" y="0" width="900" height="450" fill="#3c31dd"></rect><path d="M0 73L18.8 67.3C37.7 61.7 75.3 50.3 112.8 44.5C150.3 38.7 187.7 38.3 225.2 39.3C262.7 40.3 300.3 42.7 337.8 46.5C375.3 50.3 412.7 55.7 450.2 56.2C487.7 56.7 525.3 52.3 562.8 57.3C600.3 62.3 637.7 76.7 675.2 81.8C712.7 87 750.3 83 787.8 76.3C825.3 69.7 862.7 60.3 881.3 55.7L900 51L900 451L881.3 451C862.7 451 825.3 451 787.8 451C750.3 451 712.7 451 675.2 451C637.7 451 600.3 451 562.8 451C525.3 451 487.7 451 450.2 451C412.7 451 375.3 451 337.8 451C300.3 451 262.7 451 225.2 451C187.7 451 150.3 451 112.8 451C75.3 451 37.7 451 18.8 451L0 451Z" fill="#084537"></path><path d="M0 142L18.8 142C37.7 142 75.3 142 112.8 135.7C150.3 129.3 187.7 116.7 225.2 118.3C262.7 120 300.3 136 337.8 144C375.3 152 412.7 152 450.2 148.2C487.7 144.3 525.3 136.7 562.8 127.5C600.3 118.3 637.7 107.7 675.2 108.5C712.7 109.3 750.3 121.7 787.8 123.2C825.3 124.7 862.7 115.3 881.3 110.7L900 106L900 451L881.3 451C862.7 451 825.3 451 787.8 451C750.3 451 712.7 451 675.2 451C637.7 451 600.3 451 562.8 451C525.3 451 487.7 451 450.2 451C412.7 451 375.3 451 337.8 451C300.3 451 262.7 451 225.2 451C187.7 451 150.3 451 112.8 451C75.3 451 37.7 451 18.8 451L0 451Z" fill="#21522a"></path><path d="M0 184L18.8 189.8C37.7 195.7 75.3 207.3 112.8 209.2C150.3 211 187.7 203 225.2 196.3C262.7 189.7 300.3 184.3 337.8 181.8C375.3 179.3 412.7 179.7 450.2 176.8C487.7 174 525.3 168 562.8 169C600.3 170 637.7 178 675.2 182C712.7 186 750.3 186 787.8 191.2C825.3 196.3 862.7 206.7 881.3 211.8L900 217L900 451L881.3 451C862.7 451 825.3 451 787.8 451C750.3 451 712.7 451 675.2 451C637.7 451 600.3 451 562.8 451C525.3 451 487.7 451 450.2 451C412.7 451 375.3 451 337.8 451C300.3 451 262.7 451 225.2 451C187.7 451 150.3 451 112.8 451C75.3 451 37.7 451 18.8 451L0 451Z" fill="#465b12"></path><path d="M0 233L18.8 235C37.7 237 75.3 241 112.8 242.7C150.3 244.3 187.7 243.7 225.2 249.2C262.7 254.7 300.3 266.3 337.8 272.8C375.3 279.3 412.7 280.7 450.2 272.5C487.7 264.3 525.3 246.7 562.8 245.5C600.3 244.3 637.7 259.7 675.2 267.8C712.7 276 750.3 277 787.8 273C825.3 269 862.7 260 881.3 255.5L900 251L900 451L881.3 451C862.7 451 825.3 451 787.8 451C750.3 451 712.7 451 675.2 451C637.7 451 600.3 451 562.8 451C525.3 451 487.7 451 450.2 451C412.7 451 375.3 451 337.8 451C300.3 451 262.7 451 225.2 451C187.7 451 150.3 451 112.8 451C75.3 451 37.7 451 18.8 451L0 451Z" fill="#735f00"></path><path d="M0 316L18.8 311.7C37.7 307.3 75.3 298.7 112.8 304.3C150.3 310 187.7 330 225.2 331.3C262.7 332.7 300.3 315.3 337.8 308.5C375.3 301.7 412.7 305.3 450.2 303.7C487.7 302 525.3 295 562.8 296.8C600.3 298.7 637.7 309.3 675.2 318.2C712.7 327 750.3 334 787.8 332.3C825.3 330.7 862.7 320.3 881.3 315.2L900 310L900 451L881.3 451C862.7 451 825.3 451 787.8 451C750.3 451 712.7 451 675.2 451C637.7 451 600.3 451 562.8 451C525.3 451 487.7 451 450.2 451C412.7 451 375.3 451 337.8 451C300.3 451 262.7 451 225.2 451C187.7 451 150.3 451 112.8 451C75.3 451 37.7 451 18.8 451L0 451Z" fill="#a85700"></path><path d="M0 402L18.8 394.2C37.7 386.3 75.3 370.7 112.8 367.7C150.3 364.7 187.7 374.3 225.2 375.2C262.7 376 300.3 368 337.8 371.8C375.3 375.7 412.7 391.3 450.2 400.5C487.7 409.7 525.3 412.3 562.8 405.5C600.3 398.7 637.7 382.3 675.2 372.5C712.7 362.7 750.3 359.3 787.8 365C825.3 370.7 862.7 385.3 881.3 392.7L900 400L900 451L881.3 451C862.7 451 825.3 451 787.8 451C750.3 451 712.7 451 675.2 451C637.7 451 600.3 451 562.8 451C525.3 451 487.7 451 450.2 451C412.7 451 375.3 451 337.8 451C300.3 451 262.7 451 225.2 451C187.7 451 150.3 451 112.8 451C75.3 451 37.7 451 18.8 451L0 451Z" fill="#dd3f31"></path></svg>