<svg id="visual" viewBox="0 0 960 540" width="960" height="540" xmlns="http://www.w3.org/2000/svg" xmlns:xlink="http://www.w3.org/1999/xlink" version="1.1"><rect x="0" y="0" width="960" height="540" fill="#000000"></rect><path d="M0 344L20 339.2C40 334.3 80 324.7 120 310.7C160 296.7 200 278.3 240 272.3C280 266.3 320 272.7 360 279.2C400 285.7 440 292.3 480 296.5C520 300.7 560 302.3 600 309.3C640 316.3 680 328.7 720 322.7C760 316.7 800 292.3 840 287C880 281.7 920 295.3 940 302.2L960 309L960 541L940 541C920 541 880 541 840 541C800 541 760 541 720 541C680 541 640 541 600 541C560 541 520 541 480 541C440 541 400 541 360 541C320 541 280 541 240 541C200 541 160 541 120 541C80 541 40 541 20 541L0 541Z" fill="#fa7268"></path><path d="M0 303L20 312.3C40 321.7 80 340.3 120 346.8C160 353.3 200 347.7 240 338.8C280 330 320 318 360 315.2C400 312.3 440 318.7 480 323.8C520 329 560 333 600 329.2C640 325.3 680 313.7 720 310.7C760 307.7 800 313.3 840 314.5C880 315.7 920 312.3 940 310.7L960 309L960 541L940 541C920 541 880 541 840 541C800 541 760 541 720 541C680 541 640 541 600 541C560 541 520 541 480 541C440 541 400 541 360 541C320 541 280 541 240 541C200 541 160 541 120 541C80 541 40 541 20 541L0 541Z" fill="#f9596f"></path><path d="M0 340L20 341C40 342 80 344 120 352.2C160 360.3 200 374.7 240 374.7C280 374.7 320 360.3 360 358.7C400 357 440 368 480 366.2C520 364.3 560 349.7 600 351.3C640 353 680 371 720 380.8C760 390.7 800 392.3 840 385.8C880 379.3 920 364.7 940 357.3L960 350L960 541L940 541C920 541 880 541 840 541C800 541 760 541 720 541C680 541 640 541 600 541C560 541 520 541 480 541C440 541 400 541 360 541C320 541 280 541 240 541C200 541 160 541 120 541C80 541 40 541 20 541L0 541Z" fill="#f33d7c"></path><path d="M0 415L20 412.8C40 410.7 80 406.3 120 406.3C160 406.3 200 410.7 240 412.7C280 414.7 320 414.3 360 412C400 409.7 440 405.3 480 400.2C520 395 560 389 600 383C640 377 680 371 720 376.3C760 381.7 800 398.3 840 396.8C880 395.3 920 375.7 940 365.8L960 356L960 541L940 541C920 541 880 541 840 541C800 541 760 541 720 541C680 541 640 541 600 541C560 541 520 541 480 541C440 541 400 541 360 541C320 541 280 541 240 541C200 541 160 541 120 541C80 541 40 541 20 541L0 541Z" fill="#e71e8c"></path><path d="M0 409L20 405.8C40 402.7 80 396.3 120 394.2C160 392 200 394 240 398C280 402 320 408 360 411.2C400 414.3 440 414.7 480 413C520 411.3 560 407.7 600 404.5C640 401.3 680 398.7 720 398.3C760 398 800 400 840 400.3C880 400.7 920 399.3 940 398.7L960 398L960 541L940 541C920 541 880 541 840 541C800 541 760 541 720 541C680 541 640 541 600 541C560 541 520 541 480 541C440 541 400 541 360 541C320 541 280 541 240 541C200 541 160 541 120 541C80 541 40 541 20 541L0 541Z" fill="#d5009f"></path><path d="M0 427L20 431.3C40 435.7 80 444.3 120 444.5C160 444.7 200 436.3 240 437.7C280 439 320 450 360 454C400 458 440 455 480 448.7C520 442.3 560 432.7 600 434.3C640 436 680 449 720 453.8C760 458.7 800 455.3 840 454.8C880 454.3 920 456.7 940 457.8L960 459L960 541L940 541C920 541 880 541 840 541C800 541 760 541 720 541C680 541 640 541 600 541C560 541 520 541 480 541C440 541 400 541 360 541C320 541 280 541 240 541C200 541 160 541 120 541C80 541 40 541 20 541L0 541Z" fill="#b800b4"></path><path d="M0 478L20 477.2C40 476.3 80 474.7 120 473C160 471.3 200 469.7 240 471.8C280 474 320 480 360 483C400 486 440 486 480 485.3C520 484.7 560 483.3 600 478.5C640 473.7 680 465.3 720 463.3C760 461.3 800 465.7 840 468.2C880 470.7 920 471.3 940 471.7L960 472L960 541L940 541C920 541 880 541 840 541C800 541 760 541 720 541C680 541 640 541 600 541C560 541 520 541 480 541C440 541 400 541 360 541C320 541 280 541 240 541C200 541 160 541 120 541C80 541 40 541 20 541L0 541Z" fill="#8d1aca"></path><path d="M0 503L20 501.2C40 499.3 80 495.7 120 498C160 500.3 200 508.7 240 510.3C280 512 320 507 360 505.8C400 504.7 440 507.3 480 506C520 504.7 560 499.3 600 499.2C640 499 680 504 720 507.8C760 511.7 800 514.3 840 511C880 507.7 920 498.3 940 493.7L960 489L960 541L940 541C920 541 880 541 840 541C800 541 760 541 720 541C680 541 640 541 600 541C560 541 520 541 480 541C440 541 400 541 360 541C320 541 280 541 240 541C200 541 160 541 120 541C80 541 40 541 20 541L0 541Z" fill="#3c31dd"></path></svg>