<svg id="visual" viewBox="0 0 900 600" width="900" height="600" xmlns="http://www.w3.org/2000/svg" xmlns:xlink="http://www.w3.org/1999/xlink" version="1.1"><rect x="0" y="0" width="900" height="600" fill="#000000"></rect><path d="M0 311L18.8 320.8C37.7 330.7 75.3 350.3 112.8 349C150.3 347.7 187.7 325.3 225.2 321.3C262.7 317.3 300.3 331.7 337.8 339C375.3 346.3 412.7 346.7 450.2 350.8C487.7 355 525.3 363 562.8 366.7C600.3 370.3 637.7 369.7 675.2 363.8C712.7 358 750.3 347 787.8 337.2C825.3 327.3 862.7 318.7 881.3 314.3L900 310L900 601L881.3 601C862.7 601 825.3 601 787.8 601C750.3 601 712.7 601 675.2 601C637.7 601 600.3 601 562.8 601C525.3 601 487.7 601 450.2 601C412.7 601 375.3 601 337.8 601C300.3 601 262.7 601 225.2 601C187.7 601 150.3 601 112.8 601C75.3 601 37.7 601 18.8 601L0 601Z" fill="#fa7268"></path><path d="M0 409L18.8 397.8C37.7 386.7 75.3 364.3 112.8 358.2C150.3 352 187.7 362 225.2 372.8C262.7 383.7 300.3 395.3 337.8 400.3C375.3 405.3 412.7 403.7 450.2 394.7C487.7 385.7 525.3 369.3 562.8 361.2C600.3 353 637.7 353 675.2 350.8C712.7 348.7 750.3 344.3 787.8 346C825.3 347.7 862.7 355.3 881.3 359.2L900 363L900 601L881.3 601C862.7 601 825.3 601 787.8 601C750.3 601 712.7 601 675.2 601C637.7 601 600.3 601 562.8 601C525.3 601 487.7 601 450.2 601C412.7 601 375.3 601 337.8 601C300.3 601 262.7 601 225.2 601C187.7 601 150.3 601 112.8 601C75.3 601 37.7 601 18.8 601L0 601Z" fill="#f9596f"></path><path d="M0 421L18.8 415.7C37.7 410.3 75.3 399.7 112.8 393.7C150.3 387.7 187.7 386.3 225.2 382.8C262.7 379.3 300.3 373.7 337.8 379C375.3 384.3 412.7 400.7 450.2 402C487.7 403.3 525.3 389.7 562.8 381.8C600.3 374 637.7 372 675.2 378.3C712.7 384.7 750.3 399.3 787.8 406.7C825.3 414 862.7 414 881.3 414L900 414L900 601L881.3 601C862.7 601 825.3 601 787.8 601C750.3 601 712.7 601 675.2 601C637.7 601 600.3 601 562.8 601C525.3 601 487.7 601 450.2 601C412.7 601 375.3 601 337.8 601C300.3 601 262.7 601 225.2 601C187.7 601 150.3 601 112.8 601C75.3 601 37.7 601 18.8 601L0 601Z" fill="#f33d7c"></path><path d="M0 460L18.8 457C37.7 454 75.3 448 112.8 444.8C150.3 441.7 187.7 441.3 225.2 437.7C262.7 434 300.3 427 337.8 429.8C375.3 432.7 412.7 445.3 450.2 452.5C487.7 459.7 525.3 461.3 562.8 462.2C600.3 463 637.7 463 675.2 452.2C712.7 441.3 750.3 419.7 787.8 410C825.3 400.3 862.7 402.7 881.3 403.8L900 405L900 601L881.3 601C862.7 601 825.3 601 787.8 601C750.3 601 712.7 601 675.2 601C637.7 601 600.3 601 562.8 601C525.3 601 487.7 601 450.2 601C412.7 601 375.3 601 337.8 601C300.3 601 262.7 601 225.2 601C187.7 601 150.3 601 112.8 601C75.3 601 37.7 601 18.8 601L0 601Z" fill="#e71e8c"></path><path d="M0 475L18.8 469.3C37.7 463.7 75.3 452.3 112.8 450.5C150.3 448.7 187.7 456.3 225.2 464.5C262.7 472.7 300.3 481.3 337.8 482.7C375.3 484 412.7 478 450.2 478.7C487.7 479.3 525.3 486.7 562.8 489.3C600.3 492 637.7 490 675.2 479.8C712.7 469.7 750.3 451.3 787.8 443.7C825.3 436 862.7 439 881.3 440.5L900 442L900 601L881.3 601C862.7 601 825.3 601 787.8 601C750.3 601 712.7 601 675.2 601C637.7 601 600.3 601 562.8 601C525.3 601 487.7 601 450.2 601C412.7 601 375.3 601 337.8 601C300.3 601 262.7 601 225.2 601C187.7 601 150.3 601 112.8 601C75.3 601 37.7 601 18.8 601L0 601Z" fill="#d5009f"></path><path d="M0 522L18.8 520.8C37.7 519.7 75.3 517.3 112.8 515.2C150.3 513 187.7 511 225.2 511.7C262.7 512.3 300.3 515.7 337.8 513.3C375.3 511 412.7 503 450.2 500.2C487.7 497.3 525.3 499.7 562.8 498.3C600.3 497 637.7 492 675.2 486.3C712.7 480.7 750.3 474.3 787.8 472.2C825.3 470 862.7 472 881.3 473L900 474L900 601L881.3 601C862.7 601 825.3 601 787.8 601C750.3 601 712.7 601 675.2 601C637.7 601 600.3 601 562.8 601C525.3 601 487.7 601 450.2 601C412.7 601 375.3 601 337.8 601C300.3 601 262.7 601 225.2 601C187.7 601 150.3 601 112.8 601C75.3 601 37.7 601 18.8 601L0 601Z" fill="#b800b4"></path><path d="M0 551L18.8 549C37.7 547 75.3 543 112.8 542.3C150.3 541.7 187.7 544.3 225.2 541.3C262.7 538.3 300.3 529.7 337.8 529C375.3 528.3 412.7 535.7 450.2 539.7C487.7 543.7 525.3 544.3 562.8 539.2C600.3 534 637.7 523 675.2 522.2C712.7 521.3 750.3 530.7 787.8 533C825.3 535.3 862.7 530.7 881.3 528.3L900 526L900 601L881.3 601C862.7 601 825.3 601 787.8 601C750.3 601 712.7 601 675.2 601C637.7 601 600.3 601 562.8 601C525.3 601 487.7 601 450.2 601C412.7 601 375.3 601 337.8 601C300.3 601 262.7 601 225.2 601C187.7 601 150.3 601 112.8 601C75.3 601 37.7 601 18.8 601L0 601Z" fill="#8d1aca"></path><path d="M0 558L18.8 561C37.7 564 75.3 570 112.8 569.3C150.3 568.7 187.7 561.3 225.2 555.3C262.7 549.3 300.3 544.7 337.8 548.3C375.3 552 412.7 564 450.2 564.5C487.7 565 525.3 554 562.8 552.8C600.3 551.7 637.7 560.3 675.2 561.3C712.7 562.3 750.3 555.7 787.8 551.3C825.3 547 862.7 545 881.3 544L900 543L900 601L881.3 601C862.7 601 825.3 601 787.8 601C750.3 601 712.7 601 675.2 601C637.7 601 600.3 601 562.8 601C525.3 601 487.7 601 450.2 601C412.7 601 375.3 601 337.8 601C300.3 601 262.7 601 225.2 601C187.7 601 150.3 601 112.8 601C75.3 601 37.7 601 18.8 601L0 601Z" fill="#3c31dd"></path></svg>