<svg id="visual" viewBox="0 0 960 540" width="960" height="540" xmlns="http://www.w3.org/2000/svg" xmlns:xlink="http://www.w3.org/1999/xlink" version="1.1"><path d="M0 44L32 43.2C64 42.3 128 40.7 192 39.8C256 39 320 39 384 39.8C448 40.7 512 42.3 576 44.2C640 46 704 48 768 49.8C832 51.7 896 53.3 928 54.2L960 55L960 0L928 0C896 0 832 0 768 0C704 0 640 0 576 0C512 0 448 0 384 0C320 0 256 0 192 0C128 0 64 0 32 0L0 0Z" fill="#0066ff"></path><path d="M0 77L32 77C64 77 128 77 192 76C256 75 320 73 384 73.8C448 74.7 512 78.3 576 82.8C640 87.3 704 92.7 768 96.3C832 100 896 102 928 103L960 104L960 53L928 52.2C896 51.3 832 49.7 768 47.8C704 46 640 44 576 42.2C512 40.3 448 38.7 384 37.8C320 37 256 37 192 37.8C128 38.7 64 40.3 32 41.2L0 42Z" fill="#6368fd"></path><path d="M0 228L32 228.8C64 229.7 128 231.3 192 220.5C256 209.7 320 186.3 384 188.2C448 190 512 217 576 228.7C640 240.3 704 236.7 768 239.3C832 242 896 251 928 255.5L960 260L960 102L928 101C896 100 832 98 768 94.3C704 90.7 640 85.3 576 80.8C512 76.3 448 72.7 384 71.8C320 71 256 73 192 74C128 75 64 75 32 75L0 75Z" fill="#8c6bfb"></path><path d="M0 352L32 350.2C64 348.3 128 344.7 192 342.8C256 341 320 341 384 343.7C448 346.3 512 351.7 576 354.3C640 357 704 357 768 359.8C832 362.7 896 368.3 928 371.2L960 374L960 258L928 253.5C896 249 832 240 768 237.3C704 234.7 640 238.3 576 226.7C512 215 448 188 384 186.2C320 184.3 256 207.7 192 218.5C128 229.3 64 227.7 32 226.8L0 226Z" fill="#ab6ff8"></path><path d="M0 417L32 413.3C64 409.7 128 402.3 192 400.5C256 398.7 320 402.3 384 406C448 409.7 512 413.3 576 413.3C640 413.3 704 409.7 768 412.3C832 415 896 424 928 428.5L960 433L960 372L928 369.2C896 366.3 832 360.7 768 357.8C704 355 640 355 576 352.3C512 349.7 448 344.3 384 341.7C320 339 256 339 192 340.8C128 342.7 64 346.3 32 348.2L0 350Z" fill="#c574f5"></path><path d="M0 465L32 460.5C64 456 128 447 192 448.8C256 450.7 320 463.3 384 467.8C448 472.3 512 468.7 576 463.3C640 458 704 451 768 452C832 453 896 462 928 466.5L960 471L960 431L928 426.5C896 422 832 413 768 410.3C704 407.7 640 411.3 576 411.3C512 411.3 448 407.7 384 404C320 400.3 256 396.7 192 398.5C128 400.3 64 407.7 32 411.3L0 415Z" fill="#db7af1"></path><path d="M0 541L32 541C64 541 128 541 192 541C256 541 320 541 384 541C448 541 512 541 576 541C640 541 704 541 768 541C832 541 896 541 928 541L960 541L960 469L928 464.5C896 460 832 451 768 450C704 449 640 456 576 461.3C512 466.7 448 470.3 384 465.8C320 461.3 256 448.7 192 446.8C128 445 64 454 32 458.5L0 463Z" fill="#ee82ee"></path></svg>